<svg width="152" height="32" viewBox="0 0 152 32" fill="none" xmlns="http://www.w3.org/2000/svg">
<path d="M72.0202 24.6002L71.4039 29.3677H64.6787L68.7513 0.947266H80.1387L84.2917 29.3413H77.5129L76.8698 24.5739H72.0202V24.6002ZM74.4584 5.92544L72.7436 18.9108H76.1196L74.4584 5.92544Z" fill="#2264E5"/>
<path d="M93.0794 0.947266V29.3413H86.0059V0.947266H93.0794Z" fill="#2264E5"/>
<path d="M102.297 8.79772C102.297 9.95666 103.101 10.4044 106.504 11.6951C113.149 14.2237 113.578 15.8304 113.578 20.4398V23.4162C113.578 28.2363 109.398 29.9747 104.495 29.9747C99.5913 29.9747 95.5723 28.2363 95.5723 23.4162V19.2809H102.217V22.4943C102.217 23.7323 103.316 24.3907 104.575 24.3907C105.834 24.3907 106.96 23.7323 106.96 22.4943V21.7041C106.96 18.7277 106.424 18.2009 102.592 16.8313C96.9387 14.8295 95.6794 13.012 95.6794 9.24549V6.87493C95.6794 2.02845 99.6985 0.290039 104.602 0.290039C109.505 0.290039 113.524 2.02845 113.524 6.87493V9.74594H106.879V7.74414C106.879 6.50618 105.861 5.84769 104.602 5.84769C103.262 5.84769 102.324 6.34814 102.324 7.5861V8.74504L102.297 8.79772Z" fill="#2264E5"/>
<path d="M115.156 0.947266H132.706V6.79465H127.455V29.3413H120.381V6.79465H115.156V0.947266Z" fill="#2264E5"/>
<path d="M133.673 0.947266H151.223V6.79465H145.971V29.3413H138.898V6.79465H133.673V0.947266Z" fill="#2264E5"/>
<path d="M42.3608 0.157227H16.371C7.34148 0.157227 0 7.26891 0 16.0136C0 18.0945 0.428699 20.149 1.2593 22.0717C2.08991 23.9945 3.29563 25.7329 4.79607 27.208C6.32331 28.683 8.11849 29.8419 10.1012 30.6321C12.084 31.4223 14.2275 31.8437 16.371 31.8437H42.3876C51.4171 31.8437 58.7318 24.732 58.7318 15.9873C58.7318 7.24257 51.3903 0.157227 42.3608 0.157227ZM44.5311 29.5785C43.8077 29.6839 43.0843 29.7366 42.3608 29.7366H16.371C15.6475 29.7366 14.9241 29.6839 14.2007 29.5785C7.39506 28.5776 2.17029 22.8883 2.17029 16.0136C2.17029 9.13902 7.39506 3.44967 14.2007 2.44877C14.9241 2.34341 15.6475 2.29073 16.371 2.29073H42.3608C43.0843 2.29073 43.8077 2.34341 44.5311 2.44877C51.3367 3.44967 56.5615 9.13902 56.5615 16.0136C56.5615 22.8883 51.3367 28.5776 44.5311 29.5785Z" fill="#2264E5"/>
<path d="M17.4973 13.2745V12.7213C17.4973 11.6151 16.747 11.378 16.238 11.378C15.5145 11.378 14.9786 11.8258 14.9786 12.616V19.3062C14.9786 20.0701 15.5145 20.5442 16.238 20.5442C16.9614 20.5442 17.4973 20.0964 17.4973 19.3062V16.9093H16.0236V15.3289H19.346V19.3589C19.346 21.0973 17.9527 22.3616 16.238 22.3616C14.5232 22.3616 13.1299 21.1236 13.1299 19.3589V12.5896C13.1299 10.8512 14.5232 9.58691 16.238 9.58691C17.4973 9.58691 19.346 10.3771 19.346 12.7213V13.3008H17.4973V13.2745Z" fill="#2264E5"/>
<path d="M27.1146 19.3589C27.1146 21.0973 25.7213 22.3616 24.0065 22.3616C22.2917 22.3616 20.8984 21.1236 20.8984 19.3589V12.5896C20.8984 10.8512 22.2917 9.58691 24.0065 9.58691C25.7213 9.58691 27.1146 10.8249 27.1146 12.5896V19.3589ZM22.7472 19.3062C22.7472 20.0701 23.2831 20.5442 24.0065 20.5442C24.7299 20.5442 25.2658 20.0964 25.2658 19.3062V12.616C25.2658 11.8521 24.7299 11.378 23.9797 11.378C23.3367 11.378 22.7472 11.8258 22.7472 12.5896V19.3062Z" fill="#2264E5"/>
<path d="M29.7679 9.69336L31.2415 18.4644H31.2683L32.7688 9.69336H34.7247L32.0721 22.2573H30.4377L27.7852 9.69336H29.7411H29.7679Z" fill="#2264E5"/>
<path d="M37.7531 9.69336V22.2573H35.9043V9.69336H37.7531Z" fill="#2264E5"/>
<path d="M43.7264 13.2998V12.9574C43.7264 11.7985 43.1905 11.3771 42.4135 11.3771C41.5829 11.3771 41.1542 11.8775 41.1542 13.0101C41.1542 14.1427 41.3685 14.3534 42.4403 14.7485C42.869 14.9066 43.4316 15.1173 43.7264 15.249C45.3608 15.9075 45.5751 16.9347 45.5751 18.6468C45.5751 21.1754 44.423 22.3607 42.3599 22.3607C41.0738 22.3607 39.1982 21.5705 39.1982 19.2789V18.7258H41.047V19.3053C41.047 19.9111 41.4221 20.5696 42.3599 20.5696C43.0029 20.5696 43.4316 20.4115 43.6192 19.8057C43.6996 19.4896 43.6996 19.0945 43.6996 18.6995C43.6996 17.5669 43.5924 17.2244 42.869 16.9084C42.3867 16.6976 41.6097 16.4343 40.9666 16.1445C39.7609 15.5914 39.2786 14.6695 39.2786 13.0628C39.2786 11.0083 40.4575 9.6123 42.4671 9.6123C43.1369 9.6123 43.8336 9.79668 44.3694 10.2181C45.334 10.9556 45.5751 11.7985 45.5751 12.536V13.3525H43.7264V13.2998Z" fill="#2264E5"/>
</svg>
